<svg xmlns="http://www.w3.org/2000/svg" width="21" height="20" viewBox="0 0 21 20" fill="none">
  <mask id="mask0_235_365" style="mask-type:alpha" maskUnits="userSpaceOnUse" x="0" y="0" width="21" height="20">
    <rect x="0.5" width="20" height="20" fill="#D9D9D9"/>
  </mask>
  <g mask="url(#mask0_235_365)">
    <path d="M15.9712 16.5625C14.4562 16.4375 13 16.0376 11.6026 15.363C10.2052 14.6883 8.93997 13.7831 7.80697 12.6474C6.67395 11.5117 5.77705 10.25 5.11626 8.86219C4.45547 7.47437 4.05563 6.02299 3.91674 4.50804C3.88896 4.21408 3.97428 3.9587 4.1727 3.7419C4.37111 3.52509 4.61913 3.41669 4.91674 3.41669H7.09299C7.34513 3.41669 7.56201 3.49228 7.74363 3.64346C7.92526 3.79464 8.05186 3.99202 8.12343 4.2356L8.55932 5.97917C8.59245 6.16507 8.58203 6.34669 8.52807 6.52404C8.47413 6.70139 8.38625 6.84562 8.26445 6.95673L6.33978 8.83013C6.64961 9.41132 6.9931 9.95833 7.37024 10.4711C7.74738 10.984 8.16062 11.4636 8.60997 11.9099C9.05379 12.3535 9.53318 12.7644 10.0481 13.1426C10.5631 13.5209 11.1192 13.8649 11.7164 14.1747L13.6908 12.2468C13.8072 12.125 13.9408 12.0438 14.0914 12.0032C14.242 11.9626 14.4103 11.9562 14.5962 11.984L16.2644 12.351C16.5166 12.4204 16.7161 12.5486 16.863 12.7356C17.0099 12.9226 17.0834 13.1448 17.0834 13.4023V15.5625C17.0834 15.8601 16.9715 16.1081 16.7477 16.3065C16.524 16.5049 16.2651 16.5903 15.9712 16.5625ZM5.85261 7.77246L7.42313 6.26604C7.44984 6.24467 7.4672 6.21528 7.47522 6.1779C7.48323 6.14049 7.4819 6.10577 7.47122 6.07373L7.1057 4.62821C7.09502 4.58547 7.07632 4.55342 7.04961 4.53206C7.02289 4.51069 6.98816 4.5 6.94543 4.5H5.14588C5.11384 4.5 5.08713 4.51069 5.06576 4.53206C5.04438 4.55342 5.0337 4.58013 5.0337 4.61219C5.07643 5.13997 5.16965 5.66641 5.31334 6.19152C5.45705 6.71663 5.63681 7.24361 5.85261 7.77246ZM12.8109 14.6827C13.3091 14.9019 13.83 15.0683 14.3737 15.182C14.9173 15.2957 15.4221 15.3793 15.8879 15.4327C15.9199 15.4327 15.9466 15.422 15.968 15.4006C15.9894 15.3793 16.0001 15.3526 16.0001 15.3205V13.5256C16.0001 13.4829 15.9894 13.4482 15.968 13.4215C15.9466 13.3948 15.9146 13.3761 15.8718 13.3654L14.5177 13.0721C14.4856 13.0614 14.4576 13.0601 14.4335 13.0681C14.4095 13.0761 14.3841 13.0935 14.3574 13.1202L12.8109 14.6827Z" fill="#1C1B1F"/>
  </g>
</svg>