<svg xmlns="http://www.w3.org/2000/svg" width="20" height="20" viewBox="0 0 20 20" fill="none">
  <mask id="mask0_235_350" style="mask-type:alpha" maskUnits="userSpaceOnUse" x="0" y="0" width="20" height="20">
    <rect width="20" height="20" fill="#D9D9D9"/>
  </mask>
  <g mask="url(#mask0_235_350)">
    <path d="M15.9277 17.1893L10.9136 12.1753C10.5003 12.4675 10.0459 12.6972 9.55043 12.8641C9.05499 13.0311 8.52518 13.1146 7.96102 13.1146C6.54175 13.1146 5.33438 12.6168 4.33891 11.6214C3.34344 10.6259 2.8457 9.41878 2.8457 8C2.8457 6.58122 3.34344 5.37409 4.33891 4.37862C5.33438 3.38315 6.54151 2.88541 7.96029 2.88541C9.37906 2.88541 10.5862 3.38315 11.5817 4.37862C12.5771 5.37409 13.0749 6.58146 13.0749 8.00073C13.0749 8.56821 12.9914 9.09802 12.8244 9.59014C12.6575 10.0823 12.4278 10.5334 12.1356 10.9434L17.1546 15.9674L15.9277 17.1893ZM7.96029 11.3854C8.90262 11.3854 9.70244 11.0568 10.3597 10.3995C11.017 9.74215 11.3457 8.94233 11.3457 8C11.3457 7.05766 11.017 6.25784 10.3597 5.60054C9.70244 4.94323 8.90262 4.61458 7.96029 4.61458C7.01795 4.61458 6.21813 4.94323 5.56083 5.60054C4.90352 6.25784 4.57487 7.05766 4.57487 8C4.57487 8.94233 4.90352 9.74215 5.56083 10.3995C6.21813 11.0568 7.01795 11.3854 7.96029 11.3854Z" fill="#2E2E2E"/>
  </g>
</svg>