<svg xmlns="http://www.w3.org/2000/svg" width="20" height="20" viewBox="0 0 20 20" fill="none">
  <mask id="mask0_235_375" style="mask-type:alpha" maskUnits="userSpaceOnUse" x="0" y="0" width="20" height="20">
    <rect width="20" height="20" fill="#D9D9D9"/>
  </mask>
  <g mask="url(#mask0_235_375)">
    <path d="M9.99505 5.40383C9.54764 5.40383 9.16635 5.24452 8.85117 4.92591C8.536 4.6073 8.37842 4.22429 8.37842 3.77689C8.37842 3.32947 8.53773 2.94818 8.85634 2.63301C9.17495 2.31785 9.55796 2.16026 10.0054 2.16026C10.4528 2.16026 10.8341 2.31957 11.1493 2.63818C11.4644 2.95679 11.622 3.3398 11.622 3.7872C11.622 4.23462 11.4627 4.61591 11.1441 4.93108C10.8255 5.24624 10.4425 5.40383 9.99505 5.40383ZM7.83677 17.5416V8.0096H3.40088V6.92628H16.5995V8.0096H12.1636V17.5416H11.0803L10.8928 13.1667H9.12842L8.92009 17.5416H7.83677Z" fill="#1C1B1F"/>
  </g>
</svg>