<svg xmlns="http://www.w3.org/2000/svg" width="100" height="32" viewBox="0 0 100 32" fill="none">
  <path d="M24.7584 23.6036C24.8143 23.7205 24.8776 23.8336 24.9478 23.9422C26.7747 26.2821 26.272 29.3652 23.8087 30.9756C23.5794 31.125 23.4755 31.1424 23.3288 30.8639C22.2666 28.8467 21.5575 26.7309 21.5838 24.415C21.5945 23.489 21.7383 22.5884 22.2794 21.8046C22.7948 21.0556 23.5417 20.6561 24.3683 20.4001C25.8342 19.9387 27.3847 19.8268 28.8998 20.0731C29.6922 20.2014 30.4789 20.3675 31.2649 20.5321C31.7227 20.6278 31.7256 20.6553 31.564 21.1027C31.0884 22.4144 30.2283 23.3686 28.966 23.911C27.7522 24.4324 26.5354 24.3192 25.3351 23.8131C25.2803 23.7906 25.2326 23.7508 25.177 23.7319C25.0823 23.6913 24.9805 23.6667 24.7584 23.6036Z" fill="#F39222"/>
  <path d="M15.8415 27.8384C15.7861 27.9555 15.7383 28.076 15.6983 28.1991C15.0359 31.0948 12.3298 32.6461 9.52972 31.7438C9.26953 31.6595 9.19055 31.5896 9.31395 31.3C10.2081 29.2026 11.4011 27.3178 13.2126 25.8792C13.937 25.3041 14.7255 24.8487 15.6739 24.7759C16.5791 24.7051 17.3593 25.0346 18.0784 25.5165C19.3595 26.3666 20.4231 27.5026 21.1868 28.8368C21.5865 29.5343 21.9535 30.2511 22.3211 30.9664C22.5353 31.383 22.5158 31.4025 22.0672 31.5586C20.751 32.0149 19.4697 31.9469 18.2541 31.3063C17.0853 30.6901 16.4064 29.6721 16.0424 28.4191C16.0253 28.3623 16.0261 28.3001 16.0057 28.245C15.9776 28.1457 15.9325 28.051 15.8415 27.8384Z" fill="#FDD833"/>
  <path d="M7.11093 23.4513C6.98587 23.4845 6.86315 23.5256 6.74352 23.5743C4.1077 24.9346 1.17933 23.8627 0.0616821 21.1365C-0.0418371 20.8829 -0.0394412 20.7773 0.260972 20.6851C2.43734 20.0171 4.64428 19.7152 6.90975 20.1746C7.81549 20.3585 8.67142 20.6686 9.33855 21.3479C9.97635 21.9955 10.2282 22.8054 10.3244 23.6669C10.5023 25.1962 10.3218 26.7434 9.79676 28.1887C9.52261 28.9446 9.21257 29.6879 8.90409 30.4308C8.72456 30.8635 8.69702 30.8611 8.28869 30.6183C7.09181 29.9046 6.31735 28.8795 6.02193 27.5354C5.73806 26.243 6.07671 25.0665 6.79756 23.9797C6.82985 23.93 6.87788 23.8905 6.90676 23.8394C6.96429 23.7538 7.00751 23.6582 7.11093 23.4513Z" fill="#D3DC25"/>
  <path d="M5.2286 14.0208C5.12826 13.939 5.02291 13.8637 4.91319 13.7955C2.26493 12.4597 1.40741 9.45623 2.95013 6.94692C3.09391 6.71385 3.18052 6.6537 3.43168 6.84287C5.251 8.21352 6.79287 9.82427 7.75471 11.9303C8.13913 12.7724 8.39233 13.6484 8.23652 14.5886C8.08907 15.4864 7.58359 16.1669 6.94488 16.7516C5.81531 17.7954 4.46052 18.5592 2.98523 18.9839C2.21387 19.2064 1.43162 19.3924 0.650636 19.5794C0.195833 19.6885 0.181532 19.6648 0.137307 19.1911C0.0092194 17.8014 0.381012 16.5708 1.29193 15.5408C2.168 14.5505 3.31668 14.1329 4.6178 14.0777C4.67696 14.0746 4.73707 14.0903 4.79533 14.0836C4.89826 14.0799 5.00083 14.0587 5.2286 14.0208Z" fill="#8CC341"/>
  <path d="M11.3491 6.26548C11.3486 6.13585 11.3398 6.00649 11.3228 5.87821C10.6727 2.97964 12.4453 0.409738 15.3597 0.0123206C15.6307 -0.0242096 15.7321 0.0046951 15.7455 0.319246C15.8427 2.59797 15.5786 4.81418 14.5645 6.89543C14.1589 7.72747 13.6438 8.47943 12.8197 8.95533C12.0337 9.41078 11.188 9.45111 10.3317 9.32747C8.8099 9.11495 7.36113 8.55032 6.09742 7.67724C5.43633 7.22105 4.79651 6.73323 4.15672 6.24704C3.78402 5.964 3.79323 5.93788 4.13057 5.60304C5.12119 4.62207 6.30633 4.12915 7.67879 4.18108C8.99853 4.23123 10.0495 4.85585 10.9177 5.82854C10.9576 5.87239 10.9836 5.9289 11.0257 5.96978C11.0939 6.04712 11.1754 6.11311 11.3491 6.26548Z" fill="#048D59"/>
  <path d="M20.9778 6.3331C21.0779 6.25102 21.1727 6.1627 21.2614 6.06869C23.0987 3.73701 26.2072 3.49782 28.3509 5.5157C28.5499 5.70361 28.5914 5.8007 28.356 6.0093C26.651 7.52024 24.7668 8.71066 22.5148 9.23231C21.6144 9.44072 20.7071 9.51352 19.8192 9.17192C18.971 8.84705 18.4071 8.21431 17.9636 7.47C17.1697 6.15173 16.6948 4.66854 16.5756 3.1351C16.5128 2.33325 16.4879 1.52803 16.4618 0.723847C16.4464 0.255505 16.4724 0.246223 16.9445 0.297855C18.3288 0.450935 19.4574 1.06282 20.2816 2.16368C21.074 3.22237 21.2518 4.43377 21.0447 5.72209C21.0359 5.78078 21.0085 5.83665 21.0033 5.89517C20.9863 5.99696 20.9865 6.10192 20.9778 6.3331Z" fill="#E81C2F"/>
  <path d="M26.8606 13.8663C26.9864 13.8966 27.1139 13.9187 27.2423 13.9327C30.2066 13.9884 32.2768 16.3242 31.9699 19.2553C31.9409 19.5278 31.8888 19.6196 31.5807 19.558C29.3486 19.1113 27.2629 18.3279 25.4862 16.8464C24.7759 16.2539 24.1693 15.574 23.9037 14.6588C23.6489 13.7856 23.8107 12.9529 24.1339 12.1488C24.7014 10.7179 25.5929 9.44188 26.7394 8.41922C27.3387 7.8841 27.9636 7.3772 28.5869 6.86994C28.9498 6.5744 28.9729 6.58957 29.2174 6.99745C29.933 8.19468 30.1294 9.46532 29.753 10.7889C29.391 12.0615 28.5358 12.9362 27.3867 13.5501C27.3347 13.5786 27.2737 13.5905 27.2241 13.6218C27.1329 13.6698 27.0496 13.7334 26.8606 13.8663Z" fill="#ED5B2A"/>
  <path d="M37.926 13.7621C37.8142 13.4114 37.7136 13.0345 37.6241 12.6315C37.5346 12.2286 37.4638 11.7659 37.4116 11.2435C37.3594 10.7137 37.3333 10.0943 37.3333 9.3854C37.3333 8.49738 37.4638 7.78099 37.7247 7.23624C37.9857 6.69149 38.3398 6.29225 38.7871 6.03853C39.2419 5.78481 39.7525 5.65795 40.3191 5.65795C40.8932 5.65795 41.4039 5.78481 41.8512 6.03853C42.306 6.29225 42.6638 6.69149 42.9247 7.23624C43.1857 7.78099 43.3161 8.49738 43.3161 9.3854C43.3161 10.0869 43.29 10.7025 43.2379 11.2323C43.1857 11.7547 43.1148 12.2211 43.0254 12.6315C42.9434 13.0345 42.8427 13.4114 42.7234 13.7621H41.0013C41.1057 13.4114 41.1951 13.0233 41.2697 12.598C41.3517 12.1726 41.4151 11.695 41.4598 11.1652C41.512 10.6279 41.5381 10.0234 41.5381 9.35182C41.5381 8.79215 41.4896 8.34813 41.3927 8.01979C41.3032 7.68398 41.1653 7.44146 40.9789 7.29221C40.8 7.14296 40.5801 7.06834 40.3191 7.06834C40.0657 7.06834 39.8457 7.14296 39.6594 7.29221C39.4804 7.43399 39.3425 7.67279 39.2456 8.0086C39.1487 8.3444 39.1002 8.79215 39.1002 9.35182C39.1002 10.0309 39.1226 10.6391 39.1673 11.1764C39.2195 11.7062 39.2866 12.1838 39.3686 12.6092C39.4581 13.027 39.5513 13.4114 39.6482 13.7621H37.926Z" fill="#767779"/>
  <path d="M46.73 13.874C46.1262 13.874 45.6043 13.7658 45.1644 13.5494C44.732 13.333 44.3965 13.0345 44.158 12.6539C43.9194 12.2733 43.8001 11.8443 43.8001 11.3667C43.8001 11.1577 43.8113 10.9786 43.8337 10.8294C43.856 10.6801 43.8896 10.5271 43.9343 10.3704H45.6565C45.6267 10.4898 45.6043 10.6242 45.5894 10.7734C45.5745 10.9152 45.567 11.0607 45.567 11.21C45.567 11.4413 45.608 11.654 45.69 11.848C45.7795 12.0345 45.91 12.1838 46.0814 12.2957C46.2603 12.4077 46.4803 12.4636 46.7412 12.4636C47.032 12.4636 47.2631 12.4077 47.4345 12.2957C47.6135 12.1838 47.7402 12.0308 47.8148 11.8368C47.8893 11.6353 47.9266 11.404 47.9266 11.1428V7.88547C47.9266 7.69891 47.9005 7.5422 47.8483 7.41534C47.7961 7.28848 47.7178 7.1952 47.6135 7.1355C47.5166 7.06834 47.3898 7.03476 47.2332 7.03476C47.0245 7.03476 46.853 7.10192 46.7188 7.23624C46.5921 7.3631 46.5287 7.57205 46.5287 7.86308V8.94886H44.8737V7.85189C44.8737 7.61309 44.8103 7.43399 44.6836 7.31459C44.5568 7.18773 44.3816 7.1243 44.158 7.1243H43.4982V5.71391H44.2027C44.5755 5.71391 44.8886 5.78854 45.1421 5.93779C45.403 6.08703 45.6006 6.3221 45.7348 6.64298H45.7683C45.8652 6.42657 45.9957 6.24748 46.1597 6.10569C46.3312 5.95644 46.5287 5.84451 46.7524 5.76988C46.976 5.69526 47.2146 5.65795 47.4681 5.65795C47.9303 5.65795 48.3217 5.74376 48.6423 5.9154C48.9629 6.08703 49.2052 6.33329 49.3692 6.65417C49.5332 6.96759 49.6152 7.33698 49.6152 7.76234V11.1764C49.6152 11.7361 49.5034 12.2174 49.2797 12.6203C49.056 13.0233 48.728 13.333 48.2956 13.5494C47.8707 13.7658 47.3488 13.874 46.73 13.874Z" fill="#767779"/>
  <path d="M53.5335 13.874C52.5867 13.874 51.8598 13.6166 51.3529 13.1017C50.8459 12.5793 50.5925 11.8555 50.5925 10.9301V5.76988H52.2811V11.0421C52.2811 11.3331 52.3258 11.5868 52.4153 11.8032C52.5122 12.0122 52.6538 12.1763 52.8402 12.2957C53.0266 12.4077 53.2577 12.4636 53.5335 12.4636C53.7945 12.4636 54.0107 12.4077 54.1821 12.2957C54.3611 12.1838 54.4915 12.0383 54.5735 11.8592C54.663 11.6726 54.7077 11.4711 54.7077 11.2547C54.7077 10.9189 54.6481 10.6391 54.5288 10.4152C54.417 10.1839 54.2865 9.96374 54.1374 9.75479C53.9808 9.53092 53.8429 9.28093 53.7236 9.00482C53.6118 8.72871 53.5783 8.39291 53.623 7.9974H55.3787C55.3712 8.27351 55.416 8.50484 55.5129 8.6914C55.6098 8.87796 55.7328 9.08318 55.8819 9.30705C56.0385 9.53838 56.1764 9.79583 56.2957 10.0794C56.4224 10.363 56.4858 10.7249 56.4858 11.1652C56.4858 11.7025 56.3665 12.1763 56.1279 12.5868C55.8894 12.9897 55.5464 13.3069 55.0991 13.5382C54.6593 13.7621 54.1374 13.874 53.5335 13.874Z" fill="#767779"/>
  <path d="M61.0239 13.874C60.3828 13.874 59.8124 13.7807 59.3129 13.5942C58.8134 13.4002 58.3885 13.1241 58.0381 12.7659C57.6952 12.4077 57.4342 11.9786 57.2553 11.4786C57.0764 10.9786 56.9869 10.4189 56.9869 9.79957C56.9869 8.71006 57.259 7.82577 57.8033 7.14669C58.3549 6.46015 59.1489 6.04599 60.1852 5.90421C60.1703 5.81466 60.1591 5.7363 60.1516 5.66914C60.1516 5.60198 60.1516 5.53482 60.1516 5.46766V5.33333H61.8962V5.46766C61.8962 5.53482 61.8924 5.60198 61.885 5.66914C61.885 5.7363 61.8775 5.81093 61.8626 5.89301C62.8989 6.0348 63.6929 6.44523 64.2446 7.1243C64.7962 7.80338 65.0721 8.69887 65.0721 9.81076C65.0721 10.4152 64.9826 10.9674 64.8037 11.4674C64.6248 11.9674 64.3601 12.3965 64.0097 12.7547C63.6668 13.1129 63.2418 13.389 62.7349 13.583C62.2354 13.777 61.6651 13.874 61.0239 13.874ZM61.0127 12.4412C61.5048 12.4412 61.9148 12.3442 62.2428 12.1502C62.5783 11.9562 62.8318 11.6652 63.0033 11.2771C63.1747 10.8816 63.2605 10.3891 63.2605 9.79957C63.2605 9.02348 63.1337 8.43022 62.8803 8.01979C62.6268 7.6019 62.2577 7.33698 61.7732 7.22505C61.7881 7.32206 61.8067 7.45265 61.8291 7.61682C61.8514 7.77353 61.8626 7.97875 61.8626 8.23247V9.83315H60.174V8.23247C60.174 7.99367 60.1815 7.79965 60.1964 7.6504C60.2187 7.49369 60.2411 7.35191 60.2635 7.22505C59.7714 7.34444 59.4024 7.62055 59.1564 8.05337C58.9104 8.48619 58.7873 9.06825 58.7873 9.79957C58.7873 10.3891 58.8731 10.8816 59.0446 11.2771C59.2235 11.6652 59.477 11.9562 59.805 12.1502C60.1405 12.3442 60.543 12.4412 61.0127 12.4412Z" fill="#767779"/>
  <path d="M66.3273 13.7621C66.2154 13.4114 66.1148 13.0345 66.0253 12.6315C65.9359 12.2286 65.865 11.7659 65.8129 11.2435C65.7607 10.7137 65.7346 10.0943 65.7346 9.3854C65.7346 8.49738 65.865 7.78099 66.126 7.23624C66.3869 6.69149 66.741 6.29225 67.1883 6.03853C67.6431 5.78481 68.1538 5.65795 68.7204 5.65795C69.2944 5.65795 69.8051 5.78481 70.2524 6.03853C70.7072 6.29225 71.065 6.69149 71.326 7.23624C71.5869 7.78099 71.7174 8.49738 71.7174 9.3854C71.7174 10.0869 71.6913 10.7025 71.6391 11.2323C71.5869 11.7547 71.5161 12.2211 71.4266 12.6315C71.3446 13.0345 71.244 13.4114 71.1247 13.7621H69.4025C69.5069 13.4114 69.5964 13.0233 69.6709 12.598C69.7529 12.1726 69.8163 11.695 69.861 11.1652C69.9132 10.6279 69.9393 10.0234 69.9393 9.35182C69.9393 8.79215 69.8908 8.34813 69.7939 8.01979C69.7045 7.68398 69.5665 7.44146 69.3802 7.29221C69.2012 7.14296 68.9813 7.06834 68.7204 7.06834C68.4669 7.06834 68.247 7.14296 68.0606 7.29221C67.8817 7.43399 67.7437 7.67279 67.6468 8.0086C67.5499 8.3444 67.5014 8.79215 67.5014 9.35182C67.5014 10.0309 67.5238 10.6391 67.5685 11.1764C67.6207 11.7062 67.6878 12.1838 67.7698 12.6092C67.8593 13.027 67.9525 13.4114 68.0494 13.7621H66.3273Z" fill="#767779"/>
  <path d="M76.0628 13.874C75.4812 13.874 74.9631 13.7919 74.5083 13.6278C74.0536 13.4561 73.6659 13.1949 73.3453 12.8442C73.0322 12.4935 72.7899 12.0457 72.6184 11.501C72.4544 10.9488 72.3724 10.2884 72.3724 9.51973C72.3724 9.06452 72.406 8.62051 72.4731 8.18769C72.5402 7.75488 72.6334 7.33698 72.7526 6.93401C72.8794 6.53104 73.0285 6.143 73.2 5.76988H74.8886C74.732 6.17285 74.5978 6.56836 74.486 6.9564C74.3816 7.33698 74.2996 7.73622 74.24 8.15411C74.1803 8.56454 74.1505 9.01975 74.1505 9.51973C74.1505 10.1913 74.2176 10.7473 74.3518 11.1876C74.486 11.6204 74.6947 11.9413 74.978 12.1502C75.2613 12.3592 75.6266 12.4636 76.0739 12.4636C76.6032 12.4636 77.0058 12.3554 77.2817 12.139C77.565 11.9151 77.7066 11.6092 77.7066 11.2211C77.7066 10.9973 77.6507 10.7995 77.5389 10.6279C77.427 10.4488 77.263 10.3107 77.0468 10.2137C76.8381 10.1093 76.5734 10.057 76.2529 10.057H75.8726V8.6914H76.5883C76.7971 8.6914 76.9723 8.66902 77.1139 8.62424C77.263 8.57201 77.3749 8.50484 77.4494 8.42276C77.524 8.33321 77.5612 8.22874 77.5612 8.10934C77.5612 7.95263 77.5053 7.81831 77.3935 7.70637C77.2817 7.58697 77.1587 7.47504 77.0245 7.37056C76.8903 7.25863 76.7598 7.13923 76.6331 7.01237C76.5063 6.88551 76.4057 6.72507 76.3311 6.53105C76.2566 6.32956 76.2268 6.07584 76.2417 5.76988H77.9638C77.9638 5.94898 78.0235 6.10569 78.1427 6.24001C78.262 6.37434 78.3925 6.49746 78.5341 6.6094C78.7205 6.75119 78.8957 6.92282 79.0597 7.1243C79.2312 7.32579 79.3169 7.60936 79.3169 7.97502C79.3169 8.22874 79.261 8.44888 79.1492 8.63544C79.0374 8.82199 78.8845 8.97497 78.6907 9.09437C78.5043 9.20631 78.2844 9.28466 78.0309 9.32944V9.36302C78.2844 9.41525 78.5192 9.51973 78.7354 9.67644C78.9516 9.83315 79.1268 10.0496 79.261 10.3257C79.3952 10.6018 79.4623 10.9413 79.4623 11.3443C79.4623 11.8741 79.3132 12.3293 79.015 12.7099C78.7243 13.083 78.3217 13.3703 77.8073 13.5718C77.3003 13.7733 76.7188 13.874 76.0628 13.874Z" fill="#767779"/>
  <path d="M80.5333 13.7621C80.4215 13.4114 80.3209 13.0345 80.2314 12.6315C80.1419 12.2286 80.0711 11.7659 80.0189 11.2435C79.9667 10.7137 79.9406 10.0943 79.9406 9.3854C79.9406 8.49738 80.0711 7.78099 80.332 7.23624C80.593 6.69149 80.9471 6.29225 81.3944 6.03853C81.8492 5.78481 82.3599 5.65795 82.9264 5.65795C83.5005 5.65795 84.0112 5.78481 84.4585 6.03853C84.9133 6.29225 85.2711 6.69149 85.532 7.23624C85.793 7.78099 85.9234 8.49738 85.9234 9.3854C85.9234 10.0869 85.8974 10.7025 85.8452 11.2323C85.793 11.7547 85.7221 12.2211 85.6327 12.6315C85.5507 13.0345 85.45 13.4114 85.3307 13.7621H83.6086C83.713 13.4114 83.8024 13.0233 83.877 12.598C83.959 12.1726 84.0224 11.695 84.0671 11.1652C84.1193 10.6279 84.1454 10.0234 84.1454 9.35182C84.1454 8.79215 84.0969 8.34813 84 8.01979C83.9105 7.68398 83.7726 7.44146 83.5862 7.29221C83.4073 7.14296 83.1874 7.06834 82.9264 7.06834C82.673 7.06834 82.453 7.14296 82.2667 7.29221C82.0877 7.43399 81.9498 7.67279 81.8529 8.0086C81.756 8.3444 81.7075 8.79215 81.7075 9.35182C81.7075 10.0309 81.7299 10.6391 81.7746 11.1764C81.8268 11.7062 81.8939 12.1838 81.9759 12.6092C82.0654 13.027 82.1586 13.4114 82.2555 13.7621H80.5333Z" fill="#767779"/>
  <path d="M87.2159 13.7621C87.1041 13.4114 87.0034 13.0345 86.914 12.6315C86.8245 12.2286 86.7537 11.7659 86.7015 11.2435C86.6493 10.7137 86.6232 10.0943 86.6232 9.3854C86.6232 8.49738 86.7537 7.78099 87.0146 7.23624C87.2756 6.69149 87.6297 6.29225 88.077 6.03853C88.5318 5.78481 89.0424 5.65795 89.609 5.65795C90.1831 5.65795 90.6938 5.78481 91.1411 6.03853C91.5958 6.29225 91.9537 6.69149 92.2146 7.23624C92.4756 7.78099 92.606 8.49738 92.606 9.3854C92.606 10.0869 92.5799 10.7025 92.5277 11.2323C92.4756 11.7547 92.4047 12.2211 92.3153 12.6315C92.2333 13.0345 92.1326 13.4114 92.0133 13.7621H90.2912C90.3956 13.4114 90.485 13.0233 90.5596 12.598C90.6416 12.1726 90.705 11.695 90.7497 11.1652C90.8019 10.6279 90.828 10.0234 90.828 9.35182C90.828 8.79215 90.7795 8.34813 90.6826 8.01979C90.5931 7.68398 90.4552 7.44146 90.2688 7.29221C90.0899 7.14296 89.87 7.06834 89.609 7.06834C89.3556 7.06834 89.1356 7.14296 88.9492 7.29221C88.7703 7.43399 88.6324 7.67279 88.5355 8.0086C88.4386 8.3444 88.3901 8.79215 88.3901 9.35182C88.3901 10.0309 88.4125 10.6391 88.4572 11.1764C88.5094 11.7062 88.5765 12.1838 88.6585 12.6092C88.748 13.027 88.8412 13.4114 88.9381 13.7621H87.2159Z" fill="#767779"/>
  <path d="M96.3811 13.874C95.4343 13.874 94.7074 13.6166 94.2004 13.1017C93.6935 12.5793 93.44 11.8555 93.44 10.9301V5.76988H95.1286V11.0421C95.1286 11.3331 95.1733 11.5868 95.2628 11.8032C95.3597 12.0122 95.5014 12.1763 95.6878 12.2957C95.8741 12.4077 96.1053 12.4636 96.3811 12.4636C96.642 12.4636 96.8582 12.4077 97.0297 12.2957C97.2086 12.1838 97.3391 12.0383 97.4211 11.8592C97.5106 11.6726 97.5553 11.4711 97.5553 11.2547C97.5553 10.9189 97.4957 10.6391 97.3764 10.4152C97.2645 10.1839 97.1341 9.96374 96.985 9.75479C96.8284 9.53092 96.6905 9.28093 96.5712 9.00482C96.4594 8.72871 96.4258 8.39291 96.4706 7.9974H98.2263C98.2188 8.27351 98.2635 8.50484 98.3604 8.6914C98.4574 8.87796 98.5804 9.08318 98.7295 9.30705C98.886 9.53838 99.024 9.79583 99.1432 10.0794C99.27 10.363 99.3333 10.7249 99.3333 11.1652C99.3333 11.7025 99.2141 12.1763 98.9755 12.5868C98.7369 12.9897 98.394 13.3069 97.9467 13.5382C97.5068 13.7621 96.985 13.874 96.3811 13.874Z" fill="#767779"/>
  <path d="M40.4086 26.6667C39.4618 26.6667 38.7349 26.4092 38.228 25.8943C37.721 25.3719 37.4675 24.6481 37.4675 23.7228V18.5625H39.1561V23.8347C39.1561 24.1257 39.2009 24.3794 39.2903 24.5959C39.3872 24.8048 39.5289 24.969 39.7153 25.0884C39.9017 25.2003 40.1328 25.2563 40.4086 25.2563C40.6695 25.2563 40.8857 25.2003 41.0572 25.0884C41.2361 24.9764 41.3666 24.8309 41.4486 24.6518C41.5381 24.4653 41.5828 24.2638 41.5828 24.0474C41.5828 23.7116 41.5232 23.4317 41.4039 23.2079C41.292 22.9765 41.1616 22.7564 41.0125 22.5474C40.8559 22.3236 40.718 22.0736 40.5987 21.7975C40.4869 21.5214 40.4533 21.1856 40.4981 20.79H42.2538C42.2463 21.0662 42.291 21.2975 42.388 21.484C42.4849 21.6706 42.6079 21.8758 42.757 22.0997C42.9136 22.331 43.0515 22.5885 43.1708 22.872C43.2975 23.1556 43.3609 23.5175 43.3609 23.9578C43.3609 24.4951 43.2416 24.969 43.003 25.3794C42.7644 25.7824 42.4215 26.0995 41.9742 26.3309C41.5343 26.5547 41.0125 26.6667 40.4086 26.6667Z" fill="#767779"/>
  <path d="M46.8452 26.6667C46.2413 26.6667 45.7194 26.5585 45.2796 26.3421C44.8397 26.1256 44.5005 25.816 44.2619 25.413C44.0234 25.01 43.9041 24.5324 43.9041 23.9802C43.9041 23.7414 43.9227 23.5026 43.96 23.2638C43.9973 23.025 44.0905 22.7228 44.2396 22.3571L43.3338 22.6146H46.5768L45.9394 22.4019C45.8201 22.7153 45.7455 22.9989 45.7157 23.2526C45.6859 23.5064 45.671 23.7153 45.671 23.8795C45.671 24.275 45.7679 24.6033 45.9617 24.8645C46.1556 25.1257 46.4501 25.2563 46.8452 25.2563C47.1285 25.2563 47.3559 25.1966 47.5273 25.0772C47.6988 24.9503 47.8218 24.7787 47.8964 24.5623C47.9784 24.3459 48.0194 24.0996 48.0194 23.8235C48.0194 23.5026 47.9746 23.2116 47.8852 22.9504C47.7957 22.6892 47.6802 22.4467 47.5385 22.2228C47.4043 21.9915 47.2552 21.7751 47.0912 21.5736C46.8601 21.2676 46.6439 20.9729 46.4426 20.6893C46.2488 20.3983 46.1034 20.0849 46.0065 19.749C45.9095 19.4058 45.8909 19.0103 45.9506 18.5625H47.6839C47.6541 18.8461 47.6802 19.111 47.7622 19.3573C47.8442 19.6035 47.9635 19.8423 48.12 20.0737C48.284 20.2975 48.4555 20.5326 48.6344 20.7789C48.8208 21.0251 49.0035 21.2938 49.1824 21.5848C49.3613 21.8684 49.5067 22.1892 49.6185 22.5474C49.7378 22.9056 49.7974 23.3161 49.7974 23.7787C49.7974 24.3608 49.6781 24.8682 49.4396 25.3011C49.2085 25.7339 48.873 26.0697 48.4331 26.3085C47.9933 26.5473 47.464 26.6667 46.8452 26.6667Z" fill="#767779"/>
  <path d="M53.4553 26.6667C52.5532 26.6667 51.8487 26.4092 51.3417 25.8943C50.8422 25.3794 50.5925 24.6481 50.5925 23.7004V18.5625H52.2811V20.2975C52.2811 20.4841 52.2699 20.7042 52.2475 20.958C52.2326 21.2117 52.214 21.4057 52.1916 21.54H52.2475C52.3668 21.3758 52.5084 21.2303 52.6725 21.1035C52.8365 20.9691 53.0266 20.8647 53.2428 20.79C53.4664 20.7154 53.7236 20.6781 54.0144 20.6781C54.499 20.6781 54.9239 20.7938 55.2892 21.0251C55.662 21.249 55.9527 21.5811 56.1615 22.0213C56.3702 22.4616 56.4746 23.0101 56.4746 23.6668C56.4746 24.3011 56.3516 24.8421 56.1056 25.2899C55.8596 25.7376 55.5092 26.0809 55.0544 26.3197C54.6071 26.551 54.074 26.6667 53.4553 26.6667ZM53.4776 25.2787C53.9175 25.2787 54.2343 25.1294 54.4282 24.8309C54.6294 24.5324 54.7301 24.1556 54.7301 23.7004C54.7301 23.372 54.6779 23.0922 54.5735 22.8609C54.4766 22.6295 54.335 22.4542 54.1486 22.3348C53.9622 22.2154 53.7423 22.1557 53.4888 22.1557C53.131 22.1557 52.8588 22.234 52.6725 22.3907C52.4861 22.54 52.3556 22.7303 52.2811 22.9616C52.214 23.1929 52.1804 23.4205 52.1804 23.6444V23.8235C52.1804 24.1145 52.2289 24.372 52.3258 24.5959C52.4227 24.8123 52.5681 24.9802 52.7619 25.0996C52.9558 25.219 53.1943 25.2787 53.4776 25.2787Z" fill="#767779"/>
  <path d="M63.9734 26.5547C63.9585 26.3906 63.8914 26.2376 63.7721 26.0958C63.6602 25.954 63.5149 25.8309 63.3359 25.7264C63.157 25.6219 62.952 25.5324 62.7209 25.4578C62.4972 25.3831 62.2587 25.3272 62.0052 25.2899C61.7592 25.2526 61.5169 25.2339 61.2783 25.2339C60.7266 25.2339 60.2458 25.3011 59.8357 25.4354C59.4332 25.5622 59.079 25.7078 58.7734 25.8719L58.1248 24.8421C58.2366 24.775 58.3521 24.7115 58.4714 24.6518C58.5907 24.5847 58.7175 24.5287 58.8516 24.4839C58.9933 24.4391 59.1424 24.4056 59.299 24.3832V24.3496C58.8591 24.2302 58.4714 24.0698 58.1359 23.8683C57.8079 23.6668 57.5321 23.4317 57.3084 23.1631C57.0848 22.887 56.917 22.5773 56.8052 22.234C56.6934 21.8907 56.6375 21.5176 56.6375 21.1147C56.6375 20.6221 56.7269 20.1744 56.9058 19.7714C57.0922 19.3685 57.3681 19.0476 57.7334 18.8088C58.0987 18.57 58.5497 18.4506 59.0865 18.4506C59.5487 18.4506 59.9438 18.5551 60.2719 18.764C60.6073 18.9655 60.8422 19.2491 60.9764 19.6147H61.0323C61.159 19.2416 61.364 18.9543 61.6473 18.7528C61.9381 18.5513 62.2959 18.4506 62.7209 18.4506C63.1458 18.4506 63.5037 18.5551 63.7944 18.764C64.0927 18.973 64.2977 19.2565 64.4095 19.6147H64.4766C64.6182 19.2491 64.8419 18.9655 65.1476 18.764C65.4532 18.5551 65.8334 18.4506 66.2882 18.4506C66.8324 18.4506 67.2909 18.5737 67.6637 18.82C68.0439 19.0662 68.3347 19.4058 68.5359 19.8386C68.7372 20.2639 68.8379 20.7527 68.8379 21.305C68.8379 21.7751 68.782 22.2191 68.6701 22.637C68.5658 23.0474 68.4018 23.469 68.1781 23.9019L66.5901 23.3646C66.7616 23.0138 66.8846 22.6668 66.9592 22.3236C67.0412 21.9803 67.0822 21.6296 67.0822 21.2714C67.0822 20.7863 66.9965 20.4319 66.825 20.208C66.6535 19.9766 66.4261 19.861 66.1428 19.861C65.949 19.861 65.7887 19.9244 65.662 20.0513C65.5352 20.1781 65.442 20.346 65.3824 20.555C65.3228 20.7565 65.2929 20.9803 65.2929 21.2266V22.4019H63.6043V21.0811C63.6043 20.8721 63.5745 20.6744 63.5149 20.4878C63.4552 20.3013 63.362 20.152 63.2353 20.0401C63.1086 19.9207 62.9371 19.861 62.7209 19.861C62.5196 19.861 62.3556 19.917 62.2289 20.0289C62.1021 20.1408 62.0089 20.2901 61.9493 20.4766C61.8896 20.6632 61.8598 20.8647 61.8598 21.0811V22.4019H60.1712V21.2266C60.1712 20.9953 60.1451 20.7751 60.0929 20.5662C60.0408 20.3572 59.9513 20.1893 59.8246 20.0625C59.7053 19.9281 59.5375 19.861 59.3213 19.861C59.038 19.861 58.8106 19.9729 58.6392 20.1968C58.4677 20.4132 58.382 20.7602 58.382 21.2378C58.382 21.6408 58.4565 21.9915 58.6056 22.29C58.7547 22.5885 58.9672 22.8422 59.243 23.0511C59.5263 23.2601 59.8693 23.428 60.2719 23.5549C60.6744 23.6743 61.1292 23.7601 61.6362 23.8123C62.2102 23.8645 62.7321 23.9578 63.2018 24.0921C63.6789 24.219 64.0889 24.3944 64.4319 24.6182C64.7823 24.8347 65.0618 25.1033 65.2706 25.4242C65.4868 25.7376 65.6172 26.1145 65.662 26.5547H63.9734Z" fill="#767779"/>
  <path d="M70.0949 26.5547C69.9831 26.204 69.8824 25.8272 69.793 25.4242C69.7035 25.0212 69.6327 24.5585 69.5805 24.0362C69.5283 23.5064 69.5022 22.887 69.5022 22.178C69.5022 21.29 69.6327 20.5736 69.8936 20.0289C70.1545 19.4841 70.5087 19.0849 70.956 18.8312C71.4107 18.5775 71.9214 18.4506 72.488 18.4506C73.0621 18.4506 73.5727 18.5775 74.0201 18.8312C74.4748 19.0849 74.8327 19.4841 75.0936 20.0289C75.3545 20.5736 75.485 21.29 75.485 22.178C75.485 22.8795 75.4589 23.4952 75.4067 24.025C75.3545 24.5474 75.2837 25.0138 75.1943 25.4242C75.1122 25.8272 75.0116 26.204 74.8923 26.5547H73.1702C73.2745 26.204 73.364 25.816 73.4386 25.3906C73.5206 24.9652 73.5839 24.4877 73.6287 23.9578C73.6808 23.4205 73.7069 22.8161 73.7069 22.1445C73.7069 21.5848 73.6585 21.1408 73.5616 20.8124C73.4721 20.4766 73.3342 20.2341 73.1478 20.0849C72.9689 19.9356 72.7489 19.861 72.488 19.861C72.2345 19.861 72.0146 19.9356 71.8282 20.0849C71.6493 20.2266 71.5114 20.4654 71.4145 20.8012C71.3176 21.137 71.2691 21.5848 71.2691 22.1445C71.2691 22.8235 71.2915 23.4317 71.3362 23.969C71.3884 24.4988 71.4555 24.9764 71.5375 25.4018C71.6269 25.8197 71.7201 26.204 71.817 26.5547H70.0949Z" fill="#767779"/>
</svg>